<?xml version="1.0" encoding="UTF-8" standalone="no"?>
<!-- Created with Inkscape (http://www.inkscape.org/) -->

<svg
   width="851.02765mm"
   height="478.19095mm"
   viewBox="0 0 851.02765 478.19095"
   version="1.1"
   id="svg1"
   inkscape:version="1.4 (86a8ad7, 2024-10-11)"
   sodipodi:docname="20_aldar_upphlutur_heill_og_skorinn_ss.svg"
   xmlns:inkscape="http://www.inkscape.org/namespaces/inkscape"
   xmlns:sodipodi="http://sodipodi.sourceforge.net/DTD/sodipodi-0.dtd"
   xmlns="http://www.w3.org/2000/svg"
   xmlns:svg="http://www.w3.org/2000/svg">
  <sodipodi:namedview
     id="namedview1"
     pagecolor="#ffffff"
     bordercolor="#000000"
     borderopacity="0.25"
     inkscape:showpageshadow="2"
     inkscape:pageopacity="0.0"
     inkscape:pagecheckerboard="0"
     inkscape:deskcolor="#d1d1d1"
     inkscape:document-units="mm"
     inkscape:zoom="0.26268005"
     inkscape:cx="2257.4992"
     inkscape:cy="1214.4051"
     inkscape:window-width="2048"
     inkscape:window-height="992"
     inkscape:window-x="-8"
     inkscape:window-y="-8"
     inkscape:window-maximized="1"
     inkscape:current-layer="layer1" />
  <defs
     id="defs1" />
  <g
     inkscape:label="Layer 1"
     inkscape:groupmode="layer"
     id="layer1"
     transform="translate(909.63318,287.1633)">
    <text
       xml:space="preserve"
       style="font-size:11.9021px;font-family:sans-serif;-inkscape-font-specification:sans-serif;text-align:start;writing-mode:lr-tb;direction:ltr;text-anchor:start;fill:#000000;fill-opacity:1;stroke:none;stroke-width:3.74868;stroke-dasharray:none;stroke-opacity:1;paint-order:stroke fill markers"
       x="-67.344345"
       y="283.20319"
       id="text4"
       transform="rotate(90)"><tspan
         sodipodi:role="line"
         id="tspan4"
         style="fill:#000000;fill-opacity:1;stroke:none;stroke-width:3.74868"
         x="-67.344345"
         y="283.20319" /></text>
    <g
       id="g11"
       transform="translate(-425.51384,-239.09547)">
      <g
         id="g7"
         transform="rotate(-90,80.884993,385.30855)">
        <path
           id="path3"
           style="fill:none;stroke:#000000;stroke-width:1;stroke-dasharray:none;stroke-opacity:1;paint-order:stroke fill markers"
           d="M 60.4454,77.56322 C 74.28982,134.5132 68.02941,225.3035 45.8835,353.797 l 143.24345,5.2989 0.0755,0.003 0.0248,-0.0713 c 0,0 9.50139,-29.20441 22.99602,-58.96488 8.35845,-18.4332 26.87352,-38.56553 52.68257,-45.51556 v -64.53147 c -7.68698,-4.70097 -12.85937,-10.9777 -16.34939,-17.3116 -17.39121,-31.56259 0.009,-69.23939 2.87114,-71.90466 l 0.0429,-0.0372 -4.03076,-23.19704 c -62.3314,-0.0113 -124.66289,0.01634 -186.99427,-0.0021 z" />
        <text
           xml:space="preserve"
           style="font-size:35.6375px;font-family:sans-serif;-inkscape-font-specification:sans-serif;text-align:start;writing-mode:lr-tb;direction:ltr;text-anchor:start;fill:#000000;fill-opacity:1;stroke:none;stroke-width:11.2244;stroke-dasharray:none;stroke-opacity:1;paint-order:stroke fill markers"
           x="213.55946"
           y="-229.57611"
           id="text5"
           transform="rotate(90)"><tspan
             sodipodi:role="line"
             id="tspan5"
             style="stroke-width:11.2244"
             x="213.55946"
             y="-229.57611">A</tspan></text>
      </g>
      <text
         xml:space="preserve"
         style="font-size:35.6375px;font-family:sans-serif;-inkscape-font-specification:sans-serif;text-align:start;writing-mode:lr-tb;direction:ltr;text-anchor:start;fill:#000000;fill-opacity:1;stroke:none;stroke-width:11.2244;stroke-dasharray:none;stroke-opacity:1;paint-order:stroke fill markers"
         x="-221.3331"
         y="323.79892"
         id="text8"><tspan
           sodipodi:role="line"
           id="tspan8"
           style="stroke-width:11.2244"
           x="-221.3331"
           y="323.79892">B</tspan></text>
    </g>
    <g
       id="g21"
       transform="translate(-425.51384,-239.09547)">
      <g
         id="g6"
         transform="rotate(-90,80.884993,385.30855)">
        <path
           id="path64"
           style="fill:none;stroke:#000000;stroke-width:1;stroke-dasharray:none;stroke-opacity:1;paint-order:stroke fill markers"
           d="m 497.59753,151.94215 -0.11885,0.0646 c -22.26371,11.43096 -75.659,23.95907 -85.80665,25.9886 0,0 -41.35982,13.69845 -114.67207,19.8453 v -0.002 c -13.90385,0.095 -24.29386,-3.05249 -32.09417,-7.82278 v 64.53146 c 8.37072,-2.25411 17.49873,-3.14005 27.30945,-2.10736 l 0.0109,-0.0997 0.005,0.0997 115.82807,-5.51956 h 0.002 c 35.38573,-3.34522 70.61091,-8.43499 105.60957,-14.62133 -5.35817,-26.78549 -10.71542,-53.57123 -16.07292,-80.35685 z" />
        <text
           xml:space="preserve"
           style="font-size:35.6375px;font-family:sans-serif;-inkscape-font-specification:sans-serif;text-align:start;writing-mode:lr-tb;direction:ltr;text-anchor:start;fill:#000000;fill-opacity:1;stroke:none;stroke-width:11.2244;stroke-dasharray:none;stroke-opacity:1;paint-order:stroke fill markers"
           x="213.55946"
           y="-277.20108"
           id="text6"
           transform="rotate(90)"><tspan
             sodipodi:role="line"
             id="tspan6"
             style="stroke-width:11.2244"
             x="213.55946"
             y="-277.20108">A</tspan></text>
      </g>
      <text
         xml:space="preserve"
         style="font-size:35.6375px;font-family:sans-serif;-inkscape-font-specification:sans-serif;text-align:start;writing-mode:lr-tb;direction:ltr;text-anchor:start;fill:#000000;fill-opacity:1;stroke:none;stroke-width:11.2244;stroke-dasharray:none;stroke-opacity:1;paint-order:stroke fill markers"
         x="-111.00613"
         y="-34.189266"
         id="text15"
         transform="rotate(-15)"><tspan
           sodipodi:role="line"
           id="tspan15"
           style="stroke-width:11.2244"
           x="-111.00613"
           y="-34.189266">E</tspan></text>
    </g>
    <g
       id="g18"
       transform="rotate(15,468.32487,-1633.7765)">
      <g
         id="g17">
        <text
           xml:space="preserve"
           style="font-size:35.6375px;font-family:sans-serif;-inkscape-font-specification:sans-serif;text-align:start;writing-mode:lr-tb;direction:ltr;text-anchor:start;fill:#000000;fill-opacity:1;stroke:none;stroke-width:11.2244;stroke-dasharray:none;stroke-opacity:1;paint-order:stroke fill markers"
           x="-259.35663"
           y="323.79892"
           id="text11"><tspan
             sodipodi:role="line"
             id="tspan11"
             style="stroke-width:11.2244"
             x="-259.35663"
             y="323.79892">B</tspan></text>
        <text
           xml:space="preserve"
           style="font-size:35.6375px;font-family:sans-serif;-inkscape-font-specification:sans-serif;text-align:start;writing-mode:lr-tb;direction:ltr;text-anchor:start;fill:#000000;fill-opacity:1;stroke:none;stroke-width:11.2244;stroke-dasharray:none;stroke-opacity:1;paint-order:stroke fill markers"
           x="-347.08231"
           y="236.3801"
           id="text12"><tspan
             sodipodi:role="line"
             id="tspan12"
             style="stroke-width:11.2244"
             x="-347.08231"
             y="236.3801">C</tspan></text>
      </g>
      <path
         style="fill:none;stroke:#000000;stroke-width:1;stroke-dasharray:none;stroke-opacity:1;paint-order:stroke fill markers"
         d="m -308.60667,177.1772 c 4.72648,-2.63392 9.87175,-5.14127 15.40665,-7.4689 8.55749,23.06729 27.04827,46.34064 66.34165,49.04552 l 2.501,186.2422 c -0.12296,0.0278 -39.9631,9.07842 -83.49333,24.50366 -0.11078,-0.23928 -33.79344,-73.47248 -54.87326,-141.42391 l 0.003,0.005 c 0,0 -4.82654,-20.20905 1.46608,-45.09292 5.50596,-21.77354 19.42088,-47.29425 52.64811,-65.81103 z"
         id="path66"
         sodipodi:nodetypes="scccccccs" />
    </g>
    <g
       id="g20"
       transform="rotate(15,468.32487,-1633.7765)">
      <path
         style="fill:none;stroke:#000000;stroke-width:1;stroke-dasharray:none;stroke-opacity:1;paint-order:stroke fill markers"
         d="m -395.70944,119.31085 89.53381,0.81675 c -0.34739,4.19858 -1.13975,26.67776 6.99904,48.75404 -25.69961,10.80626 -57.87414,32.20261 -68.24956,73.23188 -6.30488,24.93242 -1.4675,45.18863 -1.4675,45.18863 l 0.002,0.003 0.001,0.002 c 21.0785,67.94724 54.92977,141.07696 55.06356,141.36593 -9.70787,3.44336 -19.60034,7.20428 -29.28479,11.25796 L -461.22623,218.74446 c 0.15709,-0.0637 15.16586,-6.15924 30.03355,-18.30475 20.29923,-16.58255 36.15609,-38.74248 35.48339,-81.1286 z"
         id="path65"
         sodipodi:nodetypes="cccscccccccc" />
      <g
         id="g19">
        <text
           xml:space="preserve"
           style="font-size:35.6375px;font-family:sans-serif;-inkscape-font-specification:sans-serif;text-align:start;writing-mode:lr-tb;direction:ltr;text-anchor:start;fill:#000000;fill-opacity:1;stroke:none;stroke-width:11.2244;stroke-dasharray:none;stroke-opacity:1;paint-order:stroke fill markers"
           x="-382.23669"
           y="212.96164"
           id="text13"><tspan
             sodipodi:role="line"
             id="tspan13"
             style="stroke-width:11.2244"
             x="-382.23669"
             y="212.96164">C</tspan></text>
        <text
           xml:space="preserve"
           style="font-size:35.6375px;font-family:sans-serif;-inkscape-font-specification:sans-serif;text-align:start;writing-mode:lr-tb;direction:ltr;text-anchor:start;fill:#000000;fill-opacity:1;stroke:none;stroke-width:11.2244;stroke-dasharray:none;stroke-opacity:1;paint-order:stroke fill markers"
           x="-512.27643"
           y="63.574005"
           id="text14"
           transform="rotate(-30)"><tspan
             sodipodi:role="line"
             id="tspan14"
             style="stroke-width:11.2244"
             x="-512.27643"
             y="63.574005">D</tspan></text>
        <text
           xml:space="preserve"
           style="font-size:35.6375px;font-family:sans-serif;-inkscape-font-specification:sans-serif;text-align:start;writing-mode:lr-tb;direction:ltr;text-anchor:start;fill:#000000;fill-opacity:1;stroke:none;stroke-width:11.2244;stroke-dasharray:none;stroke-opacity:1;paint-order:stroke fill markers"
           x="-372.97058"
           y="149.92897"
           id="text16"><tspan
             sodipodi:role="line"
             id="tspan16"
             style="stroke-width:11.2244"
             x="-372.97058"
             y="149.92897">E</tspan></text>
      </g>
    </g>
    <g
       id="g26"
       transform="translate(-718.95268,-61.672201)">
      <path
         id="path4"
         style="fill:none;stroke:#000000;stroke-width:1;stroke-dasharray:none;stroke-opacity:1;paint-order:stroke fill markers"
         d="m 452.676,-199.60433 0.0646,0.11886 c 11.43096,22.26371 23.959,75.65919 25.98853,85.80684 v 0 c 0,0 13.69844,41.35982 19.84529,114.67206987 h -0.002 C 498.76106,28.59914 486.19924,42.40549 473.43805,49.43698 c -31.56259,17.39121 -69.23939,-0.009 -71.90466,-2.87114 l -0.0372,-0.0429 -23.19704,4.03076 c -0.0113,62.3314 0.0164,124.66284 -0.002,186.99422 56.94997,-13.84442 147.74048,-7.58383 276.23399,14.56208 l 5.29865,-143.24352 0.003,-0.0753 -0.0713,-0.0248 c 0,0 -29.20441,-9.50138 -58.96488,-22.99601 C 576.38489,74.70099 548.95693,45.83808 553.17368,5.7783599 l -0.0997,-0.0109 0.0997,-0.005 -5.51956,-115.8280699 v -0.002 c -3.34522,-35.38573 -8.43498,-70.6109 -14.62132,-105.60956 -26.7855,5.35817 -53.57118,10.71534 -80.3568,16.07284 z"
         sodipodi:nodetypes="ccccccsccccccccsccccccc" />
      <g
         id="g25"
         transform="translate(-188.01017,-543.0633)">
        <text
           xml:space="preserve"
           style="font-size:35.6375px;font-family:sans-serif;-inkscape-font-specification:sans-serif;text-align:start;writing-mode:lr-tb;direction:ltr;text-anchor:start;fill:#000000;fill-opacity:1;stroke:none;stroke-width:11.2244;stroke-dasharray:none;stroke-opacity:1;paint-order:stroke fill markers"
           x="570.36194"
           y="702.36548"
           id="text22"><tspan
             sodipodi:role="line"
             id="tspan22"
             style="stroke-width:11.2244"
             x="570.36194"
             y="702.36548">B</tspan></text>
        <text
           xml:space="preserve"
           style="font-size:35.6375px;font-family:sans-serif;-inkscape-font-specification:sans-serif;text-align:start;writing-mode:lr-tb;direction:ltr;text-anchor:start;fill:#000000;fill-opacity:1;stroke:none;stroke-width:11.2244;stroke-dasharray:none;stroke-opacity:1;paint-order:stroke fill markers"
           x="555.73236"
           y="536.38373"
           id="text24"
           transform="rotate(-15)"><tspan
             sodipodi:role="line"
             id="tspan24"
             style="stroke-width:11.2244"
             x="555.73236"
             y="536.38373">E</tspan></text>
      </g>
    </g>
  </g>
</svg>
