<?xml version="1.0" encoding="UTF-8" standalone="no"?>
<!-- Created with Inkscape (http://www.inkscape.org/) -->

<svg
   width="943.77808mm"
   height="827.73456mm"
   viewBox="0 0 943.77808 827.73456"
   version="1.1"
   id="svg1"
   inkscape:version="1.4 (86a8ad7, 2024-10-11)"
   sodipodi:docname="20_aldar_upphlutur_ss_samsetning.svg"
   xmlns:inkscape="http://www.inkscape.org/namespaces/inkscape"
   xmlns:sodipodi="http://sodipodi.sourceforge.net/DTD/sodipodi-0.dtd"
   xmlns="http://www.w3.org/2000/svg"
   xmlns:svg="http://www.w3.org/2000/svg">
  <sodipodi:namedview
     id="namedview1"
     pagecolor="#ffffff"
     bordercolor="#000000"
     borderopacity="0.25"
     inkscape:showpageshadow="2"
     inkscape:pageopacity="0.0"
     inkscape:pagecheckerboard="0"
     inkscape:deskcolor="#d1d1d1"
     inkscape:document-units="mm"
     inkscape:zoom="0.18574285"
     inkscape:cx="1954.3148"
     inkscape:cy="1302.8766"
     inkscape:window-width="2048"
     inkscape:window-height="992"
     inkscape:window-x="-8"
     inkscape:window-y="-8"
     inkscape:window-maximized="1"
     inkscape:current-layer="layer1" />
  <defs
     id="defs1" />
  <g
     inkscape:label="Layer 1"
     inkscape:groupmode="layer"
     id="layer1"
     transform="translate(1124.247,312.25951)">
    <text
       xml:space="preserve"
       style="font-size:11.9021px;font-family:sans-serif;-inkscape-font-specification:sans-serif;text-align:start;writing-mode:lr-tb;direction:ltr;text-anchor:start;fill:#000000;fill-opacity:1;stroke:none;stroke-width:3.74868;stroke-dasharray:none;stroke-opacity:1;paint-order:stroke fill markers"
       x="-67.344345"
       y="283.20319"
       id="text4"
       transform="rotate(90)"><tspan
         sodipodi:role="line"
         id="tspan4"
         style="fill:#000000;fill-opacity:1;stroke:none;stroke-width:3.74868"
         x="-67.344345"
         y="283.20319" /></text>
    <path
       id="path3"
       style="fill:#00ff00;fill-opacity:1;stroke:none;stroke-width:1;stroke-dasharray:none;stroke-opacity:1;paint-order:stroke fill markers"
       d="m -307.26891,-281.11819 c -26.78549,5.35817 -53.57124,10.71542 -80.35686,16.07292 v 5.2e-4 l 0.0646,0.11885 c 11.43096,22.26371 23.95906,75.659 25.98859,85.80665 0,0 13.69845,41.35982 19.8453,114.672071 h -0.002 c 0.095,13.90385 -3.05249,24.293855 -7.82278,32.094165 -4.70097,7.68698 -10.97771,12.85937 -17.31161,16.34939 -31.56259,17.3912101 -69.23938,-0.009 -71.90465,-2.871142 l -0.0372,-0.04289 -23.19703,4.030762 c -0.0113,62.3314 0.0162,124.662884 -0.002,186.994264 56.94998,-13.84442 147.74029,-7.584 276.23379,14.56191 l 5.2989,-143.243454 0.003,-0.07545 -0.0713,-0.02481 c 0,0 -29.2044,-9.501382 -58.96487,-22.996012 -18.4332,-8.35845 -38.56554,-26.8735225 -45.51557,-52.682573 -2.25411,-8.37072 -3.14005,-17.498724 -2.10736,-27.309444 l -0.0997,-0.01085 0.0997,-0.0052 -5.51956,-115.828077 v -0.002 c -3.34522,-35.38573 -8.43499,-70.61091 -14.62133,-105.60957 z" />
    <path
       style="fill:#0000ff;fill-opacity:1;stroke:none;stroke-width:1;stroke-dasharray:none;stroke-opacity:1;paint-order:stroke fill markers"
       d="m -543.38184,-57.181724 c 4.74949,-2.592202 9.91664,-5.05415 15.47182,-7.332955 8.35405,23.141745 26.63919,46.577004 65.90723,49.627759 l 0.86103,186.257 c -0.1232,0.0267 -40.04148,8.72619 -83.70584,23.76755 -0.10867,-0.24025 -33.14521,-73.76718 -53.6259,-141.901588 l 0.003,0.005 c 0,0 -4.64841,-20.250764 1.86307,-45.0782627 5.69746,-21.7242153 19.83655,-47.1214153 53.22554,-65.3449103 z"
       id="path66"
       sodipodi:nodetypes="scccccccs" />
    <path
       style="fill:#00ff00;fill-opacity:1;stroke:none;stroke-width:1;stroke-dasharray:none;stroke-opacity:1;paint-order:stroke fill markers"
       d="m -623.46358,-113.93535 89.52315,1.60506 c -0.38435,4.19536 -1.37461,26.666692 6.56949,48.813778 -25.79377,10.579555 -58.15545,31.691778 -68.89173,72.6281019 -6.52416,24.8759391 -1.86533,45.1739571 -1.86533,45.1739571 l 0.002,0.003 9.8e-4,0.002 c 20.4794,68.130203 53.68545,141.555143 53.81669,141.845283 -9.73781,3.35775 -19.66301,7.03142 -29.38278,10.99967 L -689.85335,-15.082477 c 0.15765,-0.06231 15.21951,-6.025465 30.19356,-18.039594 20.44446,-16.403172 36.49582,-38.422622 36.19636,-80.813019 z"
       id="path65"
       sodipodi:nodetypes="cccscccccccc" />
    <path
       id="path28"
       style="fill:#0000ff;fill-opacity:1;stroke:none;stroke-width:1;stroke-dasharray:none;stroke-opacity:1;paint-order:stroke fill markers"
       d="m -1065.665,94.075962 v 5.17e-4 l 5e-4,5.16e-4 c 3e-4,-3.4e-4 7e-4,-6.92e-4 10e-4,-10e-4 z m -10e-4,10e-4 c -19.5269,19.101058 -39.0537,38.202398 -58.581,57.302968 25.4172,24.84239 51.6399,48.90678 78.9787,71.62095 v 0.001 l 92.54989,69.86551 0.0599,-0.0796 -0.047,0.0884 c 8.68487,4.67864 15.72426,10.55721 21.36666,17.13849 17.39694,20.29178 21.33687,47.35803 17.84697,67.2946 -5.63457,32.18761 -14.25339,61.66445 -14.25339,61.66445 l -0.0196,0.0729 0.0641,0.0403 121.2913,76.38811 c 54.15765,-118.60844 100.17705,-197.1216 143.72091,-236.35042 -51.48952,-35.12877 -102.95313,-70.29558 -154.43864,-105.43026 l -16.40778,16.88527 0.0145,0.0548 c 0.86108,3.81498 -6.0112,44.74279 -38.17028,61.00454 -6.4536,3.26337 -14.26455,5.53089 -23.2637,5.07928 -9.13184,-0.45826 -19.48744,-3.71663 -30.91698,-11.63443 l -10e-4,0.002 c -57.08241,-46.41194 -83.51786,-81.04519 -83.51786,-81.04519 -7.2366,-7.39768 -44.2717,-47.85019 -56.2141,-69.843795 z" />
    <path
       style="fill:#00ff00;fill-opacity:1;stroke:none;stroke-width:1;stroke-dasharray:none;stroke-opacity:1;paint-order:stroke fill markers"
       d="m -806.17449,82.636768 c -4.81877,2.461026 -9.76544,5.340435 -14.77965,8.643578 14.40241,19.947464 23.44783,48.262444 3.82712,82.413774 l 153.3431,105.72751 c 0.0915,-0.0867 29.78331,-28.14998 66.82494,-55.73142 -0.13715,-0.22521 -42.23578,-68.96623 -86.96006,-124.297003 l 0.002,0.0053 c 0,0 -14.10409,-15.256987 -38.28032,-23.877563 -21.15427,-7.543159 -50.10165,-10.185347 -83.97787,7.115553 z"
       id="path33"
       sodipodi:nodetypes="scccccccs" />
    <path
       style="fill:#0000ff;fill-opacity:1;stroke:none;stroke-width:1;stroke-dasharray:none;stroke-opacity:1;paint-order:stroke fill markers"
       d="m -807.89488,-15.501398 -49.14979,74.841621 c 3.68163,2.04802 22.7989,13.900073 36.61097,32.948138 23.28077,-15.337899 58.96356,-30.161617 98.82601,-15.947719 24.22338,8.63741 38.36063,23.929648 38.36063,23.929648 l 10e-4,0.003 0.001,0.002 c 44.72154,55.32734 86.64036,124.15086 86.80599,124.42283 8.26357,-6.14922 16.89371,-12.27507 25.65131,-18.06517 L -688.82064,-14.596576 c -0.14035,0.09506 -13.55754,9.1723909 -31.92269,14.76550717 -25.07438,7.63643273 -52.31028,8.47803963 -87.15142,-15.67006017 z"
       id="path34"
       sodipodi:nodetypes="cccscccccccc" />
    <g
       id="g39"
       style="stroke:#000000;stroke-dasharray:2, 6;stroke-dashoffset:0;stroke-opacity:1">
      <path
         style="fill:none;fill-opacity:1;stroke:#000000;stroke-width:4.6;stroke-dasharray:2, 6;stroke-dashoffset:0;stroke-opacity:1;paint-order:stroke fill markers"
         d="m -1097.5748,125.29002 c 0,0 3.423,-239.49047 265.10503,-103.370619"
         id="path38" />
      <path
         style="fill:none;fill-opacity:1;stroke:#000000;stroke-width:4.59999;stroke-dasharray:2, 6;stroke-dashoffset:0;stroke-opacity:1;paint-order:stroke fill markers"
         d="m -578.70201,-113.13282 c 0,0 -85.93469,-297.74965 235.76238,-160.85027"
         id="path39" />
    </g>
  </g>
</svg>
