<?xml version="1.0" encoding="UTF-8" standalone="no"?>
<!-- Created with Inkscape (http://www.inkscape.org/) -->

<svg
   width="428.1134mm"
   height="431.8233mm"
   viewBox="0 0 428.1134 431.8233"
   version="1.1"
   id="svg1"
   inkscape:version="1.4.4 (dcaf3e7, 2026-05-05)"
   sodipodi:docname="logo_tp_h_s.svg"
   xml:space="preserve"
   xmlns:inkscape="http://www.inkscape.org/namespaces/inkscape"
   xmlns:sodipodi="http://sodipodi.sourceforge.net/DTD/sodipodi-0.dtd"
   xmlns="http://www.w3.org/2000/svg"
   xmlns:svg="http://www.w3.org/2000/svg"><sodipodi:namedview
     id="namedview1"
     pagecolor="#ffffff"
     bordercolor="#000000"
     borderopacity="0.25"
     inkscape:showpageshadow="2"
     inkscape:pageopacity="0.0"
     inkscape:pagecheckerboard="0"
     inkscape:deskcolor="#d1d1d1"
     inkscape:document-units="mm"
     inkscape:zoom="0.24309873"
     inkscape:cx="320.85729"
     inkscape:cy="102.83887"
     inkscape:window-width="1638"
     inkscape:window-height="955"
     inkscape:window-x="0"
     inkscape:window-y="33"
     inkscape:window-maximized="0"
     inkscape:current-layer="layer1"
     showgrid="false" /><defs
     id="defs1" /><g
     inkscape:label="Layer 1"
     inkscape:groupmode="layer"
     id="layer1"
     transform="translate(-3082.6635,-3612.9469)"><path
       id="path57"
       style="fill:#ffffff;fill-opacity:1;stroke:none;stroke-width:1.2013;stroke-opacity:1;paint-order:stroke fill markers"
       d="m 3171.3594,3612.9469 -88.3486,43.6645 0.3188,0.6455 -0.6661,0.2744 c 9.0392,21.8443 11.6394,42.0671 10.9425,59.8459 2.0031,0.5046 28.2004,7.2275 56.0741,21.4928 36.7228,19.7858 59.4407,52.0641 73.751,89.9237 h -5e-4 c 25.4371,67.2973 24.3105,152.2289 28.0619,215.9765 15.3892,-1.8909 30.1949,-2.6205 44.9631,-2.4629 v 0.01 h 0.2646 0.2646 v -0.01 c 14.7682,-0.1576 29.574,0.572 44.9631,2.4629 3.7514,-63.7476 2.6248,-148.6792 28.0619,-215.9765 h -5e-4 c 14.3103,-37.8596 37.0282,-70.1379 73.751,-89.9237 27.8737,-14.2653 54.071,-20.9882 56.0741,-21.4928 -0.6969,-17.7788 1.9033,-38.0016 10.9425,-59.8459 l -0.6661,-0.2744 0.3188,-0.6455 -88.3486,-43.6645 -0.3204,0.646 -0.6816,-0.2347 c 0,0 -5.4575,15.8912 -23.8673,30.5646 -21.2117,16.9064 -60.758,25.4461 -100.4915,25.6181 -39.7334,-0.172 -79.2805,-8.7117 -100.4921,-25.6181 -18.4098,-14.6734 -23.8667,-30.5646 -23.8667,-30.5646 l -0.6816,0.2347 z"
       sodipodi:nodetypes="ccccccccccccccccccccccccccccccc" /></g></svg>
