<?xml version="1.0" encoding="UTF-8" standalone="no"?>
<!-- Created with Inkscape (http://www.inkscape.org/) -->

<svg
   width="428.1134mm"
   height="431.8233mm"
   viewBox="0 0 428.1134 431.8233"
   version="1.1"
   id="svg1"
   inkscape:version="1.4.4 (dcaf3e7, 2026-05-05)"
   sodipodi:docname="logo_h.svg"
   xml:space="preserve"
   xmlns:inkscape="http://www.inkscape.org/namespaces/inkscape"
   xmlns:sodipodi="http://sodipodi.sourceforge.net/DTD/sodipodi-0.dtd"
   xmlns="http://www.w3.org/2000/svg"
   xmlns:svg="http://www.w3.org/2000/svg"><sodipodi:namedview
     id="namedview1"
     pagecolor="#ffffff"
     bordercolor="#000000"
     borderopacity="0.25"
     inkscape:showpageshadow="2"
     inkscape:pageopacity="0.0"
     inkscape:pagecheckerboard="0"
     inkscape:deskcolor="#d1d1d1"
     inkscape:document-units="mm"
     inkscape:zoom="0.3652321"
     inkscape:cx="743.36292"
     inkscape:cy="564.0249"
     inkscape:window-width="1638"
     inkscape:window-height="955"
     inkscape:window-x="0"
     inkscape:window-y="33"
     inkscape:window-maximized="0"
     inkscape:current-layer="layer1"
     showgrid="false" /><defs
     id="defs1" /><g
     inkscape:label="Layer 1"
     inkscape:groupmode="layer"
     id="layer1"
     transform="translate(-3082.6635,-3612.9469)"><path
       id="path57"
       style="fill:#ffffff;fill-opacity:1;stroke:none;stroke-width:1.2013;stroke-opacity:1;paint-order:stroke fill markers"
       d="m 3171.3594,3612.9469 -88.3486,43.6645 0.3188,0.6455 -0.6661,0.2744 c 9.0392,21.8443 11.6394,42.0671 10.9425,59.8459 2.0031,0.5046 28.2004,7.2275 56.0741,21.4928 36.7228,19.7858 59.4408,52.0641 73.7511,89.9237 h -6e-4 c 25.4371,67.2973 24.3105,152.2289 28.0619,215.9765 15.3892,-1.8909 30.1949,-2.6205 44.9631,-2.4629 v 0.01 c 0.088,0 0.1764,0 0.2646,0 0.088,0 0.1764,0 0.2646,0 v -0.01 c 14.7682,-0.1576 29.574,0.572 44.9631,2.4629 3.7514,-63.7476 2.6248,-148.6792 28.0619,-215.9765 h -5e-4 c 14.3103,-37.8596 37.0282,-70.1379 73.751,-89.9237 27.8737,-14.2653 54.071,-20.9882 56.0741,-21.4928 -0.6969,-17.7788 1.9033,-38.0016 10.9425,-59.8459 l -0.6661,-0.2744 0.3189,-0.6455 -88.3487,-43.6645 -0.3204,0.646 -0.6816,-0.2346 c 0,0 -5.4574,15.8911 -23.8672,30.5645 -21.2117,16.9064 -60.7581,25.4461 -100.4916,25.6181 -39.7334,-0.172 -79.2804,-8.7117 -100.492,-25.6181 -18.4098,-14.6734 -23.8668,-30.5645 -23.8668,-30.5645 l -0.6816,0.2346 z" /><path
       d="m 3282.3952,3753.1285 -34.669,-16.1014 v 33.5523 z m 17.7301,-2.7456 -52.3991,26.0134 v 12.2854 l 5.305,8.7953 -12.3785,6.0961 -5.1189,-8.5625 0.1862,-0.1396 v -75.2482 l -0.1862,0.093 -5.1654,-8.6091 12.1923,-6.2824 5.3516,8.7953 -0.1861,0.093 v 12.7507 z m 56.913,26.0134 -35.4602,-16.3805 v 28.6659 l 2.5595,4.1882 z m -0.7911,-42.3009 -34.6691,-16.1014 v 31.3651 l 2.2803,1.0238 z m -39.6484,-28.9917 57.3785,26.1995 -44.0227,21.8253 44.8138,20.5222 -60.2637,29.9224 -5.1189,-8.5625 v -75.2947 l -5.1655,-8.6091 z"
       id="text1"
       style="font-size:147.425px;line-height:1;font-family:'Icelandic Runes';-inkscape-font-specification:'Icelandic Runes';text-align:center;letter-spacing:0px;text-anchor:middle;fill:#ffffff;stroke-width:28.4931;paint-order:markers fill stroke"
       aria-label="Tb" /></g></svg>
