<?xml version="1.0" encoding="UTF-8" standalone="no"?>
<!-- Created with Inkscape (http://www.inkscape.org/) -->

<svg
   width="1206.5184mm"
   height="1092.954mm"
   viewBox="0 0 1206.5184 1092.954"
   version="1.1"
   id="svg1"
   inkscape:version="1.4.4 (dcaf3e7, 2026-05-05)"
   sodipodi:docname="samsetning.svg"
   inkscape:export-filename="samsetning.png"
   inkscape:export-xdpi="96"
   inkscape:export-ydpi="96"
   xmlns:inkscape="http://www.inkscape.org/namespaces/inkscape"
   xmlns:sodipodi="http://sodipodi.sourceforge.net/DTD/sodipodi-0.dtd"
   xmlns="http://www.w3.org/2000/svg"
   xmlns:svg="http://www.w3.org/2000/svg">
  <sodipodi:namedview
     id="namedview1"
     pagecolor="#ffffff"
     bordercolor="#000000"
     borderopacity="0.25"
     inkscape:showpageshadow="2"
     inkscape:pageopacity="0.0"
     inkscape:pagecheckerboard="0"
     inkscape:deskcolor="#d1d1d1"
     inkscape:document-units="mm"
     inkscape:zoom="0.1210785"
     inkscape:cx="2188.6628"
     inkscape:cy="2143.2377"
     inkscape:window-width="1717"
     inkscape:window-height="962"
     inkscape:window-x="0"
     inkscape:window-y="33"
     inkscape:window-maximized="0"
     inkscape:current-layer="layer1" />
  <defs
     id="defs1" />
  <g
     inkscape:label="Layer 1"
     inkscape:groupmode="layer"
     id="layer1"
     transform="translate(-72.864476,987.66512)">
    <g
       id="g534"
       transform="translate(285.16526,-160.78467)">
      <path
         id="path510"
         style="baseline-shift:baseline;display:inline;overflow:visible;vector-effect:none;fill:#00ff00;fill-opacity:1;stroke:none;paint-order:stroke fill markers;enable-background:accumulate;stop-color:#000000"
         d="m 13.047739,-794.39144 c 0,0 -64.452207,111.86719 -73.111817,302.53296 v 0.0129 c -0.200437,7.25667 -0.833951,14.00545 -1.841748,20.28403 h -1.207161 l -0.08217,0.50178 c -6.705424,40.60669 -29.155637,61.16659 -51.390653,71.76771 -25.75742,12.28045 -51.2129,11.69541 -51.2129,11.69541 l -0.63097,-0.014 v 0.004 c -13.86161,-0.39418 -29.04872,-3.69852 -45.01327,-11.74398 l -0.22531,0.447 -0.63252,0.014 6.00583,263.40459 0.63097,-0.015 0.18397,0.57154 c 18.05008,-5.81936 42.58905,-12.87019 71.6194,-19.04742 0.21775,-0.0398 0.44005,-0.0779 0.65888,-0.1173 21.16887,-4.48545 44.668461,-8.51457 69.808136,-11.24893 24.830487,-2.67858 53.243083,-4.47801 83.737524,-4.1491 l 0.607198,0.006 v -0.60359 c 47.88633,0.51648 100.898812,6.27672 153.235612,22.10873 l 0.70538,0.16795 c 0.12919,-0.27276 0.42013,-1.40921 0.42013,-1.40921 41.36073,-127.24698 19.41174,-290.51509 19.41174,-290.51509 l -0.0589,-0.4439 c -41.65914,23.427 -72.64043,29.5753 -95.639647,25.63513 -23.58023,-4.03969 -38.876648,-18.65297 -48.882288,-36.44946 -3.57937,-6.36648 -6.471998,-13.13683 -8.808248,-19.9626 -10.72496,-31.33508 -9.734806,-63.84107 -9.734806,-63.84107 l -0.711585,-0.0217 0.714169,-0.007 c -1.4826,-117.33768 72.842585,-213.21282 72.842585,-213.21282 z" />
      <path
         id="path21"
         style="fill:#ff0000;fill-opacity:1;stroke:none;stroke-width:1.2013;stroke-opacity:1;paint-order:stroke fill markers"
         d="m 247.21265,-493.18697 -0.46479,0.54989 -0.63785,-0.33185 c -10.69563,20.61036 -23.36915,33.85484 -33.35766,41.94714 -9.98848,8.09229 -17.24156,11.00789 -17.24156,11.00789 l -0.51752,0.20997 0.0733,0.55441 c 0,0 21.8379,163.28287 -19.60907,290.50183 l 0.68578,0.22249 0.41101,0.59279 c 0,0 -0.0653,0.0394 -0.0469,0.0314 0.0193,-0.007 0.0755,-0.0307 0.18513,-0.0575 0.21896,-0.0533 0.6459,-0.12319 1.36703,-0.13781 1.44226,-0.0292 4.06487,0.16179 8.61151,1.07763 9.09331,1.83172 25.87879,6.55688 56.46071,18.11338 l 0.25485,-0.67389 0.63079,0.35034 c 38.94197,-91.86986 111.50734,-224.80957 44.4801,-319.31551 -19.38982,-26.14806 -41.28426,-44.64327 -41.28426,-44.64327 z"
         sodipodi:nodetypes="cccsccccccsssscccscc" />
      <g
         id="g529"
         style="fill:#fff500;fill-opacity:1;stroke:none">
        <text
           xml:space="preserve"
           style="font-size:18.6266px;line-height:1;font-family:'Capture it';-inkscape-font-specification:'Capture it';text-align:center;letter-spacing:0px;writing-mode:lr-tb;direction:ltr;text-anchor:middle;fill:#fff500;fill-opacity:1;stroke:none;stroke-width:0.24;paint-order:markers fill stroke"
           x="-14.625474"
           y="-472.84732"
           id="text96"><tspan
             sodipodi:role="line"
             id="tspan96"
             style="font-style:normal;font-variant:normal;font-weight:normal;font-stretch:normal;font-family:sans-serif;-inkscape-font-specification:sans-serif;fill:#fff500;fill-opacity:1;stroke:none;stroke-width:0.24"
             x="-14.625474"
             y="-472.84732">A</tspan></text>
        <text
           xml:space="preserve"
           style="font-style:normal;font-variant:normal;font-weight:normal;font-stretch:normal;font-size:18.6266px;line-height:1;font-family:sans-serif;-inkscape-font-specification:sans-serif;text-align:center;letter-spacing:0px;writing-mode:lr-tb;direction:ltr;text-anchor:middle;fill:#fff500;fill-opacity:1;stroke:none;stroke-width:0.24;paint-order:markers fill stroke"
           x="36.658951"
           y="-742.20026"
           id="text97"><tspan
             sodipodi:role="line"
             id="tspan97"
             style="fill:#fff500;fill-opacity:1;stroke:none;stroke-width:0.24"
             x="36.658951"
             y="-742.20026">D</tspan></text>
      </g>
      <g
         id="g533"
         transform="rotate(26.49873,306.64202,-668.01405)">
        <path
           id="path57"
           style="fill:#403bff;fill-opacity:1;stroke:none;stroke-width:1.2013;stroke-opacity:1;paint-order:stroke fill markers"
           d="m 410.11879,-589.0013 -88.3486,43.66451 0.3188,0.64544 -0.6661,0.27441 c 9.0392,21.8443 11.6394,42.06721 10.9425,59.84595 2.0031,0.50463 28.2004,7.22741 56.0741,21.49275 36.7228,19.7858 59.4407,52.06408 73.751,89.92371 h -5e-4 c 25.4371,67.2973 24.3105,152.22888 28.0619,215.97648 15.573,-1.9135 30.5485,-2.6376 45.4923,-2.4567 v -213.51978 -159.25178 c -39.8224,-0.13508 -79.4975,-8.67515 -100.7562,-25.61911 -18.4098,-14.67333 -23.8672,-30.56454 -23.8672,-30.56454 l -0.6816,0.23461 z" />
        <path
           id="path533"
           style="fill:#40ff00;fill-opacity:1;stroke:none;stroke-width:1.2013;stroke-opacity:1;paint-order:stroke fill markers"
           d="m 661.36959,-589.0013 88.3486,43.66451 -0.3188,0.64544 0.6661,0.27441 c -9.0392,21.8443 -11.6394,42.06721 -10.9425,59.84595 -2.0031,0.50463 -28.2004,7.22741 -56.0741,21.49275 -36.7228,19.7858 -59.4407,52.06408 -73.751,89.92371 h 5e-4 c -25.4371,67.2973 -24.3105,152.22888 -28.0619,215.97648 -15.573,-1.9135 -30.5485,-2.6376 -45.4923,-2.4567 v -213.51978 -159.25178 c 39.8224,-0.13508 79.4975,-8.67515 100.7562,-25.61911 18.4098,-14.67333 23.8672,-30.56454 23.8672,-30.56454 l 0.6816,0.23461 z" />
      </g>
    </g>
    <path
       id="path534"
       style="baseline-shift:baseline;display:inline;overflow:visible;vector-effect:none;fill:#00ff00;fill-opacity:1;stroke:none;paint-order:stroke fill markers;enable-background:accumulate;stop-color:#000000"
       d="m 1279.3829,-467.69116 c 0,0 -50.1704,118.95918 -196.8392,241.09302 l -0.01,0.008 c -5.6602,4.54548 -10.6541,9.12903 -15.0471,13.72659 l 0.7296,0.96174 -0.3501,0.36873 c -28.2985,29.8841 -31.11,60.19609 -26.1175,84.31774 5.7835,27.942891 21.6344,47.869569 21.6344,47.869569 l 0.3925,0.494229 v 0.0024 c 8.6917,10.805246 20.503,20.907667 36.5615,28.764028 l -0.2199,0.449662 0.3711,0.512387 -213.48306,154.411905 -0.3694,-0.51175 -0.56653,0.19886 C 879.79294,87.078239 870.57942,63.266766 857.9554,36.405018 c -0.0999,-0.197535 -0.2039,-0.397667 -0.30476,-0.59582 -9.22053,-19.576063 -20.21325,-40.7332033 -33.22874,-62.414463 -12.87306,-21.401218 -28.6115,-45.124945 -47.3038,-69.22094 l -0.37176,-0.480125 0.48088,-0.364798 C 747.87415,-134.5098 711.24526,-173.26322 667.0006,-205.39114 l -0.56012,-0.46047 c 0.13923,-0.26778 0.86879,-1.18642 0.86879,-1.18642 76.37945,-109.85756 219.71996,-191.04704 219.71996,-191.04704 l 0.38925,-0.22136 c 6.51381,47.34848 20.33999,75.74705 37.37939,91.68906 17.46985,16.34475 38.35705,19.69934 58.58265,16.91493 7.23545,-0.99611 14.3776,-2.78344 21.22768,-5.04752 31.4464,-10.3938 56.7454,-30.82866 56.7454,-30.82866 l 0.4473,0.5538 -0.426,-0.5732 c 94.3784,-69.73548 125.841,-186.89513 125.841,-186.89513 z" />
    <path
       id="path535"
       style="fill:#ff0000;fill-opacity:1;stroke:none;stroke-width:1.2013;stroke-opacity:1;paint-order:stroke fill markers"
       d="m 897.88986,-472.20702 -0.15719,0.70264 0.64989,0.30761 c -9.95594,20.97767 -12.84812,39.07932 -13.25836,51.92795 -0.41024,12.8486 1.65054,20.38923 1.65054,20.38923 l 0.1455,0.53921 -0.486,0.27668 c 0,0 -143.28513,81.2869 -219.59013,191.19624 l -0.59173,-0.41189 -0.72068,0.0308 c 0,0 0.008,0.0758 0.003,0.0563 -0.006,-0.0196 -0.0212,-0.0787 -0.0661,-0.18224 -0.0899,-0.20666 -0.29223,-0.58904 -0.71642,-1.1724 -0.84841,-1.16669 -2.58562,-3.14068 -6.06317,-6.20945 -6.95515,-6.13754 -20.86449,-16.65466 -48.55463,-34.03461 l 0.38286,-0.61032 -0.66035,-0.29081 c 49.65651,-86.54929 111.71184,-224.70802 227.51428,-228.42532 32.55088,-0.35561 60.51851,5.90944 60.51851,5.90944 z"
       sodipodi:nodetypes="cccsccccccsssscccscc" />
    <g
       id="g536"
       style="fill:#fff500;fill-opacity:1;stroke:none"
       transform="matrix(-0.60438099,-0.79669543,-0.79669543,0.60438099,654.38068,22.819001)">
      <text
         xml:space="preserve"
         style="font-size:18.6266px;line-height:1;font-family:'Capture it';-inkscape-font-specification:'Capture it';text-align:center;letter-spacing:0px;writing-mode:lr-tb;direction:ltr;text-anchor:middle;fill:#fff500;fill-opacity:1;stroke:none;stroke-width:0.24;paint-order:markers fill stroke"
         x="-14.625474"
         y="-472.84732"
         id="text535"><tspan
           sodipodi:role="line"
           id="tspan535"
           style="font-style:normal;font-variant:normal;font-weight:normal;font-stretch:normal;font-family:sans-serif;-inkscape-font-specification:sans-serif;fill:#fff500;fill-opacity:1;stroke:none;stroke-width:0.24"
           x="-14.625474"
           y="-472.84732">A</tspan></text>
      <text
         xml:space="preserve"
         style="font-style:normal;font-variant:normal;font-weight:normal;font-stretch:normal;font-size:18.6266px;line-height:1;font-family:sans-serif;-inkscape-font-specification:sans-serif;text-align:center;letter-spacing:0px;writing-mode:lr-tb;direction:ltr;text-anchor:middle;fill:#fff500;fill-opacity:1;stroke:none;stroke-width:0.24;paint-order:markers fill stroke"
         x="36.658951"
         y="-742.20026"
         id="text536"><tspan
           sodipodi:role="line"
           id="tspan536"
           style="fill:#fff500;fill-opacity:1;stroke:none;stroke-width:0.24"
           x="36.658951"
           y="-742.20026">D</tspan></text>
    </g>
    <g
       id="g539"
       style="stroke:#009aff;stroke-width:25;stroke-dasharray:25, 25;stroke-dashoffset:0;stroke-opacity:1"
       inkscape:export-filename="g539.png"
       inkscape:export-xdpi="96"
       inkscape:export-ydpi="96">
      <path
         style="fill:none;fill-opacity:1;stroke:#009aff;stroke-width:25;stroke-dasharray:25, 25;stroke-dashoffset:0;stroke-opacity:1;paint-order:markers fill stroke"
         d="m 343.91175,-932.00033 c 4.12678,-8.04888 61.23464,-38.60937 82.15202,-41.82162 75.1604,-11.54228 183.80619,49.29099 173.82108,261.73334"
         id="path538"
         sodipodi:nodetypes="csc" />
      <path
         style="fill:none;fill-opacity:1;stroke:#009aff;stroke-width:25;stroke-dasharray:25, 25;stroke-dashoffset:0;stroke-opacity:1;paint-order:markers fill stroke"
         d="m 903.8074,-560.56683 c 19.20899,-15.80324 84.38182,-76.14237 110.9597,-85.72074 86.9851,-31.34838 252.5756,42.3144 218.5323,156.19542"
         id="path539"
         sodipodi:nodetypes="csc" />
    </g>
  </g>
</svg>
